<?xml version="1.0" standalone="no"?>
<!DOCTYPE svg PUBLIC "-//W3C//DTD SVG 20010904//EN"
 "http://www.w3.org/TR/2001/REC-SVG-20010904/DTD/svg10.dtd">
<svg version="1.0" xmlns="http://www.w3.org/2000/svg"
 width="136.000000pt" height="136.000000pt" viewBox="0 0 136.000000 136.000000"
 preserveAspectRatio="xMidYMid meet">
<metadata>
Created by potrace 1.14, written by Peter Selinger 2001-2017
</metadata>
<g transform="translate(0.000000,136.000000) scale(0.100000,-0.100000)"
fill="#000000" stroke="none">
<path d="M50 670 l0 -350 80 0 80 0 0 145 0 145 140 0 140 0 0 60 0 60 -140 0
-140 0 0 80 0 80 155 0 155 0 0 65 0 65 -235 0 -235 0 0 -350z"/>
<path d="M720 670 l0 -350 75 0 75 0 0 98 c0 95 1 100 32 140 18 23 35 42 38
42 3 0 47 -63 98 -140 l92 -140 90 0 91 0 -127 186 c-70 103 -127 192 -127
199 0 6 54 77 121 157 67 80 122 148 122 152 0 3 -39 6 -87 5 l-88 0 -125
-155 -125 -155 -3 156 -3 155 -74 0 -75 0 0 -350z"/>
</g>
</svg>
