<?xml version="1.0" encoding="UTF-8"?>
<!DOCTYPE svg PUBLIC "-//W3C//DTD SVG 1.1//EN" "http://www.w3.org/Graphics/SVG/1.1/DTD/svg11.dtd">
<svg xmlns="http://www.w3.org/2000/svg" version="1.1" width="96px" height="96px" style="shape-rendering:geometricPrecision; text-rendering:geometricPrecision; image-rendering:optimizeQuality; fill-rule:evenodd; clip-rule:evenodd" xmlns:xlink="http://www.w3.org/1999/xlink">
<g><path style="opacity:0.984" fill="#0861e7" d="M 19.5,5.5 C 27.6682,4.95 35.6682,5.78334 43.5,8C 46.1024,8.88343 48.2691,10.3834 50,12.5C 51.28,21.7331 51.9467,31.0664 52,40.5C 64.8736,33.2459 77.0403,34.2459 88.5,43.5C 89.666,56.1535 89.8326,68.8202 89,81.5C 83.5272,87.3846 76.6939,90.0513 68.5,89.5C 61.1753,90.0459 54.6753,88.0459 49,83.5C 42.7587,87.9786 35.7587,89.9786 28,89.5C 19.3039,90.3341 11.9706,87.6675 6,81.5C 5.33333,58.8333 5.33333,36.1667 6,13.5C 9.75341,9.43095 14.2534,6.76428 19.5,5.5 Z M 23.5,9.5 C 29.6393,9.35666 35.6393,10.19 41.5,12C 48.1667,15.3333 48.1667,18.6667 41.5,22C 30.9231,25.8252 20.7565,24.9919 11,19.5C 10.6258,18.5838 10.1258,17.7504 9.5,17C 10.1258,16.2496 10.6258,15.4162 11,14.5C 14.9985,12.1182 19.1652,10.4515 23.5,9.5 Z M 9.5,24.5 C 18.4307,28.279 27.764,29.4456 37.5,28C 40.6237,27.5209 43.4571,26.3543 46,24.5C 46.6667,27.8333 46.6667,31.1667 46,34.5C 37.0313,39.5767 27.5313,40.7433 17.5,38C 10.1307,36.3892 7.46408,31.8892 9.5,24.5 Z M 45.5,40.5 C 46.4794,43.6248 46.8128,46.9581 46.5,50.5C 41.9053,56.0423 35.9053,58.709 28.5,58.5C 14.878,59.049 8.71135,52.7156 10,39.5C 21.6807,45.5468 33.514,45.8802 45.5,40.5 Z M 61.5,40.5 C 68.0306,39.9885 74.3639,40.8218 80.5,43C 86.4045,46.7268 86.7378,50.7268 81.5,55C 73.3316,59.1967 64.9982,59.53 56.5,56C 53.113,53.9984 51.613,51.165 52,47.5C 54.4803,44.1797 57.647,41.8463 61.5,40.5 Z M 45.5,58.5 C 46.4682,60.6074 46.8016,62.9407 46.5,65.5C 42.0315,71.3972 36.0315,74.0639 28.5,73.5C 22.3834,73.7379 16.8834,72.0712 12,68.5C 9.75515,65.1191 9.08849,61.4525 10,57.5C 21.6274,64.9651 33.4607,65.2984 45.5,58.5 Z M 52.5,58.5 C 63.0937,65.1444 73.7604,65.1444 84.5,58.5C 86.2489,66.6159 82.9155,71.4492 74.5,73C 67.7854,74.2478 61.4521,73.2478 55.5,70C 53.2663,68.3621 51.933,66.1955 51.5,63.5C 51.2155,61.5853 51.5489,59.9187 52.5,58.5 Z M 45.5,73.5 C 46.4614,75.2646 46.7947,77.2646 46.5,79.5C 36.8681,85.8113 26.5348,86.9779 15.5,83C 10.3835,81.2683 8.55012,77.7683 10,72.5C 21.6581,80.0508 33.4914,80.3842 45.5,73.5 Z M 84.5,72.5 C 86.479,78.6844 84.1457,82.5177 77.5,84C 70.3971,86.0713 63.3971,85.738 56.5,83C 51.7917,81.2294 50.4583,78.0628 52.5,73.5C 61.3734,79.0203 70.7067,79.8536 80.5,76C 82.3237,75.34 83.657,74.1733 84.5,72.5 Z"/></g>
<g><path style="opacity:0.481" fill="#0861e7" d="M 45.5,40.5 C 45.56,39.9569 45.8933,39.6236 46.5,39.5C 47.8077,43.3147 47.8077,46.9813 46.5,50.5C 46.8128,46.9581 46.4794,43.6248 45.5,40.5 Z"/></g>
<g><path style="opacity:0.474" fill="#0861e7" d="M 45.5,58.5 C 45.56,57.9569 45.8933,57.6236 46.5,57.5C 47.8003,60.3092 47.8003,62.9759 46.5,65.5C 46.8016,62.9407 46.4682,60.6074 45.5,58.5 Z"/></g>
<g><path style="opacity:0.502" fill="#0861e7" d="M 52.5,58.5 C 51.5489,59.9187 51.2155,61.5853 51.5,63.5C 50.2072,61.6365 50.2072,59.6365 51.5,57.5C 52.1067,57.6236 52.44,57.9569 52.5,58.5 Z"/></g>
<g><path style="opacity:0.471" fill="#0861e7" d="M 45.5,73.5 C 45.56,72.9569 45.8933,72.6236 46.5,72.5C 47.7969,74.9732 47.7969,77.3066 46.5,79.5C 46.7947,77.2646 46.4614,75.2646 45.5,73.5 Z"/></g>
</svg>
