<?xml version="1.0" encoding="UTF-8"?>
<!DOCTYPE svg PUBLIC "-//W3C//DTD SVG 1.1//EN" "http://www.w3.org/Graphics/SVG/1.1/DTD/svg11.dtd">
<svg xmlns="http://www.w3.org/2000/svg" version="1.1" width="96px" height="96px" style="shape-rendering:geometricPrecision; text-rendering:geometricPrecision; image-rendering:optimizeQuality; fill-rule:evenodd; clip-rule:evenodd" xmlns:xlink="http://www.w3.org/1999/xlink">
<g><path style="opacity:0.978" fill="#0861e7" d="M 41.5,-0.5 C 44.1667,-0.5 46.8333,-0.5 49.5,-0.5C 57.4062,2.98261 60.2395,8.98261 58,17.5C 53.5409,25.4466 47.0409,27.6132 38.5,24C 32.0795,18.4818 30.9128,11.9818 35,4.5C 36.9651,2.44965 39.1318,0.782988 41.5,-0.5 Z M 44.5,3.5 C 52.7129,4.92837 55.5462,9.59503 53,17.5C 45.5417,23.5315 40.0417,22.0315 36.5,13C 37.6062,8.40302 40.2729,5.23636 44.5,3.5 Z"/></g>
<g><path style="opacity:0.985" fill="#0861e7" d="M 32.5,34.5 C 41.1731,34.3336 49.8397,34.5002 58.5,35C 69.5276,38.3749 74.6943,45.8749 74,57.5C 55.2313,58.8251 36.3979,58.8251 17.5,57.5C 16.356,45.9535 21.356,38.2868 32.5,34.5 Z M 31.5,39.5 C 40.8393,39.3335 50.1726,39.5002 59.5,40C 66.1788,42.5239 69.5122,47.3572 69.5,54.5C 53.5,54.5 37.5,54.5 21.5,54.5C 22.1023,47.6159 25.4357,42.6159 31.5,39.5 Z"/></g>
<g><path style="opacity:0.979" fill="#0861e7" d="M -0.5,64.5 C -0.5,62.1667 -0.5,59.8333 -0.5,57.5C 0.970083,55.8487 2.30342,54.0153 3.5,52C 5.21199,50.2491 7.21199,49.5825 9.5,50C 10.5171,51.0495 10.6838,52.2161 10,53.5C 4.17743,56.2949 2.8441,60.2949 6,65.5C 15.639,72.6195 26.4723,75.7862 38.5,75C 34.9713,72.6692 32.9713,69.5025 32.5,65.5C 33.8734,65.3433 35.2068,65.51 36.5,66C 40.1705,70.5226 44.5038,74.0226 49.5,76.5C 61.6707,76.1255 73.004,72.9589 83.5,67C 85.5836,65.4993 86.9169,63.4993 87.5,61C 85.9201,57.4193 83.5867,54.4193 80.5,52C 81.0593,49.8125 82.3927,49.1458 84.5,50C 93.8333,57.3333 93.8333,64.6667 84.5,72C 72.6074,78.1395 59.9407,81.1395 46.5,81C 43.1667,84.3333 39.8333,87.6667 36.5,91C 35.2068,91.49 33.8734,91.6567 32.5,91.5C 33.3186,87.1474 35.652,83.6474 39.5,81C 27.8501,80.272 16.8501,77.272 6.5,72C 3.93337,69.6041 1.60004,67.1041 -0.5,64.5 Z"/></g>
</svg>
