<?xml version="1.0" encoding="UTF-8"?>
<!DOCTYPE svg PUBLIC "-//W3C//DTD SVG 1.1//EN" "http://www.w3.org/Graphics/SVG/1.1/DTD/svg11.dtd">
<svg xmlns="http://www.w3.org/2000/svg" version="1.1" width="96px" height="96px" style="shape-rendering:geometricPrecision; text-rendering:geometricPrecision; image-rendering:optimizeQuality; fill-rule:evenodd; clip-rule:evenodd" xmlns:xlink="http://www.w3.org/1999/xlink">
<g><path style="opacity:0.972" fill="#0861e7" d="M 46.5,4.5 C 74.8333,5.5 89.5,20.1667 90.5,48.5C 84.8742,47.1916 79.5409,45.0249 74.5,42C 73.6198,40.6439 73.2865,39.1439 73.5,37.5C 78.0283,38.1779 82.1949,39.8446 86,42.5C 82.1145,21.2919 69.2811,9.79186 47.5,8C 46.6634,6.98873 46.33,5.82207 46.5,4.5 Z"/></g>
<g><path style="opacity:0.974" fill="#0861e7" d="M 25.5,9.5 C 39.7059,10.2651 45.5392,17.5985 43,31.5C 38.1776,41.1537 30.6776,43.987 20.5,40C 12.0781,33.8434 10.2448,26.0101 15,16.5C 17.7008,12.7483 21.2008,10.415 25.5,9.5 Z M 24.5,14.5 C 36.6592,14.1673 41.1592,19.834 38,31.5C 33.5258,37.6608 28.0258,38.8275 21.5,35C 14.4152,26.9318 15.4152,20.0984 24.5,14.5 Z"/></g>
<g><path style="opacity:0.973" fill="#0861e7" d="M 6.5,44.5 C 12.7897,45.5569 18.623,47.8903 24,51.5C 24.8542,53.6073 24.1875,54.9407 22,55.5C 18.5272,54.097 15.1939,52.4303 12,50.5C 13.6831,65.8702 21.8498,76.3702 36.5,82C 41.1176,83.1584 45.7842,83.9917 50.5,84.5C 50.5,85.8333 50.5,87.1667 50.5,88.5C 22.8333,86.8333 8.16667,72.1667 6.5,44.5 Z"/></g>
<g><path style="opacity:0.973" fill="#0861e7" d="M 67.5,50.5 C 82.7297,52.5673 87.8964,60.9007 83,75.5C 74.9017,83.9941 66.235,84.6608 57,77.5C 49.9638,64.2555 53.4638,55.2555 67.5,50.5 Z M 65.5,55.5 C 79.1601,55.6527 83.3267,61.986 78,74.5C 70.5572,80.4779 64.2239,79.4779 59,71.5C 57,68.1667 57,64.8333 59,61.5C 61.0627,59.2659 63.2294,57.2659 65.5,55.5 Z"/></g>
</svg>
