<?xml version="1.0" encoding="UTF-8"?>
<!DOCTYPE svg PUBLIC "-//W3C//DTD SVG 1.1//EN" "http://www.w3.org/Graphics/SVG/1.1/DTD/svg11.dtd">
<svg xmlns="http://www.w3.org/2000/svg" version="1.1" width="96px" height="96px" style="shape-rendering:geometricPrecision; text-rendering:geometricPrecision; image-rendering:optimizeQuality; fill-rule:evenodd; clip-rule:evenodd" xmlns:xlink="http://www.w3.org/1999/xlink">
<g><path style="opacity:0.969" fill="#0861e7" d="M 44.5,8.5 C 60.0243,7.89736 66.5243,15.2307 64,30.5C 58.2605,40.6078 50.0938,43.1078 39.5,38C 32.1888,31.6896 30.6888,24.1896 35,15.5C 37.529,12.1151 40.6956,9.78177 44.5,8.5 Z M 44.5,13.5 C 58.0264,12.9134 62.5264,18.9134 58,31.5C 52.5014,37.0284 46.668,37.5284 40.5,33C 35.0172,25.2462 36.3505,18.7462 44.5,13.5 Z"/></g>
<g><path style="opacity:0.975" fill="#0861e7" d="M 39.5,49.5 C 41.5273,49.3379 43.5273,49.5045 45.5,50C 46.5171,51.0495 46.6838,52.2161 46,53.5C 37.0882,54.1375 28.9216,56.9708 21.5,62C 14.4686,68.2307 10.802,76.064 10.5,85.5C 7.26573,85.7634 5.9324,84.2634 6.5,81C 7.89435,69.5458 13.561,60.8791 23.5,55C 28.7399,52.5336 34.0732,50.7003 39.5,49.5 Z"/></g>
<g><path style="opacity:0.973" fill="#0861e7" d="M 61.5,55.5 C 64.8649,55.255 68.0316,55.9217 71,57.5C 77.3058,54.16 82.3058,55.4933 86,61.5C 87.6387,73.2071 83.1387,81.7071 72.5,87C 71.1667,87.6667 69.8333,87.6667 68.5,87C 58.6306,81.7591 54.1306,73.5925 55,62.5C 56.6941,59.6424 58.8607,57.309 61.5,55.5 Z M 61.5,60.5 C 64.9717,60.1262 67.9717,61.1262 70.5,63.5C 80.331,58.4824 83.831,61.4824 81,72.5C 78.5374,75.9646 75.7041,79.1312 72.5,82C 67.3632,81.2307 63.5299,78.3973 61,73.5C 57.6682,68.9243 57.8348,64.591 61.5,60.5 Z"/></g>
</svg>
