<svg class="svg-icon" style="width: 1em;height: 1em;vertical-align: middle;fill: currentColor;overflow: hidden;" viewBox="0 0 1024 1024" version="1.1" xmlns="http://www.w3.org/2000/svg"><path d="M475.477333 795.008H199.296a32 32 0 0 1 0-64h276.181333a32 32 0 0 1 0 64zM764.885333 911.146667c-105.216 0-148.138667-42.922667-148.138666-148.138667s42.922667-148.138667 148.138666-148.138667 148.138667 42.922667 148.138667 148.138667-42.922667 148.138667-148.138667 148.138667z m0-232.234667c-69.162667 0-84.138667 14.976-84.138666 84.138667s14.976 84.138667 84.138666 84.138666 84.138667-14.976 84.138667-84.138666-14.976-84.138667-84.138667-84.138667zM880.981333 347.52h-276.181333a32 32 0 0 1 0-64h276.181333a32 32 0 0 1 0 64zM315.477333 463.573333c-105.258667 0-148.181333-42.922667-148.181333-148.138666s42.922667-148.138667 148.181333-148.138667c105.216 0 148.138667 42.922667 148.138667 148.138667-0.042667 105.216-42.965333 148.138667-148.138667 148.138666z m0-232.277333c-69.248 0-84.181333 14.933333-84.181333 84.138667 0 69.205333 14.933333 84.138667 84.181333 84.138666 69.205333 0 84.138667-14.933333 84.138667-84.138666-0.042667-69.205333-14.976-84.138667-84.138667-84.138667z" fill="#130F26" /></svg>