<svg class="svg-icon" style="width: 1em;height: 1em;vertical-align: middle;fill: currentColor;overflow: hidden;" viewBox="0 0 1024 1024" version="1.1" xmlns="http://www.w3.org/2000/svg"><path d="M671.445333 482.261333c-89.429333 0-110.634667-21.205333-117.589333-28.16-47.658667-47.701333-35.754667-284.586667 5.589333-332.202666C580.266667 97.962667 609.578667 85.333333 644.309333 85.333333c108.117333 0 246.570667 121.813333 279.893334 217.856 18.688 53.888 7.637333 100.394667-31.104 130.858667-44.970667 35.370667-157.184 48.213333-221.653334 48.213333zM644.309333 149.333333c-16.085333 0-27.989333 4.736-36.48 14.506667-22.698667 31.36-29.056 217.514667-8.149333 245.546667 2.688 1.664 23.168 8.874667 71.850667 8.874666 79.104 0 161.322667-18.218667 182.058666-34.517333 6.613333-5.205333 24.192-19.072 10.154667-59.605333-27.818667-80.042667-146.730667-174.805333-219.434667-174.805334z" fill="#130F26" /><path d="M454.485333 930.346667c-198.869333 0-360.618667-161.749333-360.618666-360.576 0-201.984 168.234667-354.048 277.333333-354.048 26.026667 0 48.298667 8.490667 64.384 24.576 24.661333 24.661333 26.197333 68.693333 28.16 124.458666 1.92 54.698667 4.352 122.752 33.237333 151.68 20.778667 20.821333 68.949333 23.210667 103.296 23.210667 15.445333 0 31.104-0.512 46.421334-0.981333 15.274667-0.469333 30.208-0.938667 44.330666-0.938667 40.234667 0 80.896 3.413333 105.514667 28.032 24.704 24.704 25.216 71.978667 1.365333 129.536-36.181333 87.296-149.205333 235.050667-343.424 235.050667zM371.157333 279.722667c-73.002667 0-213.333333 122.496-213.333333 290.048 0 163.541333 133.077333 296.576 296.618667 296.576 156.117333 0 241.024-118.485333 263.296-154.837334 34.688-56.533333 35.925333-94.933333 32.469333-101.76-1.792-1.536-13.269333-8.021333-59.264-8.021333-13.44 0-27.690667 0.469333-42.282667 0.938667a1522.773333 1522.773333 0 0 1-48.469333 0.981333c-52.736 0-111.616-4.949333-148.565333-41.941333-46.72-46.762667-49.621333-128.768-51.925334-194.688-1.024-28.885333-2.56-72.533333-9.728-81.792-3.541333-3.541333-9.984-5.504-18.816-5.504z" fill="#130F26" /></svg>