<svg class="svg-icon" style="width: 1em;height: 1em;vertical-align: middle;fill: currentColor;overflow: hidden;" viewBox="0 0 1024 1024" version="1.1" xmlns="http://www.w3.org/2000/svg"><path d="M512 650.666667c-76.458667 0-138.666667-62.208-138.666667-138.666667S435.541333 373.333333 512 373.333333s138.666667 62.208 138.666667 138.666667-62.208 138.666667-138.666667 138.666667z m0-213.333334c-41.173333 0-74.666667 33.493333-74.666667 74.666667s33.493333 74.666667 74.666667 74.666667 74.666667-33.493333 74.666667-74.666667-33.493333-74.666667-74.666667-74.666667z" fill="#130F26" /><path d="M512 949.333333c-75.861333 0-137.6-62.037333-137.6-138.325333 0-28.8-30.378667-41.514667-50.645333-29.738667a137.386667 137.386667 0 0 1-68.778667 18.602667 137.941333 137.941333 0 0 1-119.296-69.248 139.008 139.008 0 0 1 50.346667-188.842667c15.36-8.96 17.024-23.808 17.024-29.781333s-1.664-20.821333-17.024-29.781333c-65.536-38.058667-88.106667-122.752-50.346667-188.8a137.941333 137.941333 0 0 1 119.296-69.290667c24.064 0 47.872 6.442667 68.778667 18.602667 20.309333 11.861333 50.645333-0.981333 50.645333-29.781334 0-76.288 61.738667-138.325333 137.6-138.325333s137.6 62.08 137.6 138.325333a33.792 33.792 0 0 0 50.645333 29.781334 136.789333 136.789333 0 0 1 68.736-18.602667c49.024 0 94.762667 26.538667 119.253334 69.248a138.922667 138.922667 0 0 1-50.304 188.842667 33.92 33.92 0 0 0-16.981334 29.781333c0 5.973333 1.664 20.821333 16.981334 29.738667a138.965333 138.965333 0 0 1 50.304 188.842666 137.941333 137.941333 0 0 1-119.296 69.248c-24.021333 0-47.829333-6.4-68.693334-18.602666-20.138667-11.776-50.688 0.896-50.688 29.738666A138.069333 138.069333 0 0 1 512 949.333333z m-171.52-236.714666a98.218667 98.218667 0 0 1 97.92 98.389333c0 41.002667 32.981333 74.325333 73.6 74.325333s73.6-33.322667 73.6-74.325333a98.261333 98.261333 0 0 1 97.92-98.389333c16.981333 0 33.92 4.565333 48.896 13.312 34.090667 19.84 80.853333 6.826667 100.352-27.178667a74.794667 74.794667 0 0 0-26.965333-101.674667A97.450667 97.450667 0 0 1 756.949333 512c0-35.498667 18.261333-67.285333 48.853334-85.077333a74.837333 74.837333 0 0 0 26.965333-101.674667c-19.584-34.048-66.432-46.976-100.309333-27.178667-37.162667 21.632-86.4 15.189333-117.034667-14.336a97.450667 97.450667 0 0 1-29.824-70.741333c0-40.96-32.981333-74.325333-73.6-74.325333s-73.6 33.365333-73.6 74.325333A98.346667 98.346667 0 0 1 340.48 311.424a97.706667 97.706667 0 0 1-48.896-13.312c-34.133333-19.84-80.853333-6.912-100.394667 27.136a74.88 74.88 0 0 0 26.965334 101.674667A97.365333 97.365333 0 0 1 267.050667 512c0 35.456-18.261333 67.285333-48.810667 85.077333a74.794667 74.794667 0 0 0-27.008 101.674667c19.456 34.005333 66.261333 47.018667 100.352 27.178667a97.92 97.92 0 0 1 48.896-13.312z" fill="#130F26" /></svg>