<?xml version="1.0" encoding="utf-8"?>
<svg xmlns="http://www.w3.org/2000/svg">

	<symbol id="Graph">
		<path d="M13.423 2.00105C13.0474 1.98661 12.6739 2.12156 12.3925 2.37643C12.1684 2.57938 12.0162 2.84619 11.957 3.13824L11.9349 3.30295L11.9299 3.44914L12.3741 9.97348C12.4295 10.8051 13.1615 11.4382 14.0133 11.39L20.6588 10.9567C21.0477 10.9286 21.4041 10.7524 21.6545 10.4668C21.8538 10.2393 21.9737 9.95621 21.9977 9.65855L22 9.4567L21.9904 9.34084C21.3029 5.20162 17.7085 2.12227 13.423 2.00105ZM13.4113 3.44902L13.6287 3.45932C17.0119 3.66443 19.8318 6.0802 20.4854 9.33352L20.5182 9.51352L13.9214 9.94502C13.888 9.94688 13.8537 9.91719 13.8511 9.87814L13.4113 3.44902ZM8.7814 5.84532C9.502 5.74681 10.211 6.12453 10.4978 6.7606C10.5855 6.93485 10.6382 7.12392 10.6533 7.32102L11.0419 12.8095C11.0471 12.8847 11.0827 12.9548 11.1409 13.0042C11.1845 13.0413 11.2381 13.0645 11.298 13.0712L11.3599 13.0724L16.9341 12.7366C17.3867 12.71 17.8305 12.8675 18.1604 13.1719C18.4902 13.4763 18.6768 13.9004 18.6744 14.3912C18.4265 18.0037 15.773 21.0237 12.159 21.8065C8.54503 22.5893 4.83611 20.9474 3.05781 17.7848C2.58229 16.9695 2.26178 16.0778 2.1138 15.1749L2.06643 14.8359C2.0253 14.5821 2.00319 14.3257 2 14.0795L2.00311 13.8372C2.0134 10.0655 4.66156 6.80403 8.38809 5.92434L8.64383 5.86807L8.7814 5.84532ZM9.01643 7.27813L8.93217 7.28772L8.70369 7.33933C5.73526 8.05478 3.6062 10.6103 3.48796 13.621L3.4828 13.8661C3.47569 14.0525 3.4825 14.2392 3.50499 14.4378L3.53277 14.6408C3.63212 15.495 3.90795 16.3206 4.34914 17.0772C5.81632 19.6863 8.86669 21.0367 11.839 20.3929C14.8113 19.7491 16.9936 17.2653 17.1958 14.3414C17.1959 14.2974 17.1774 14.2552 17.1446 14.225C17.1228 14.2049 17.0959 14.1912 17.0675 14.1851L17.024 14.1817L11.459 14.5169C10.9894 14.5503 10.5255 14.3992 10.17 14.0971C9.81456 13.7951 9.59684 13.3669 9.56522 12.91L9.17702 7.42617C9.17632 7.41708 9.17385 7.40822 9.15682 7.37299C9.1315 7.31695 9.07648 7.28131 9.01643 7.27813Z"/>
	</symbol>
	<symbol id="Activity">
		<path d="M16.8212 4.58138C16.8212 3.15572 17.9805 2 19.4106 2C20.8407 2 22 3.15572 22 4.58138C22 6.00703 20.8407 7.16275 19.4106 7.16275C17.9805 7.16275 16.8212 6.00703 16.8212 4.58138ZM20.5465 4.58138C20.5465 3.95599 20.0379 3.44902 19.4106 3.44902C18.7833 3.44902 18.2747 3.95599 18.2747 4.58138C18.2747 5.20676 18.7833 5.71373 19.4106 5.71373C20.0379 5.71373 20.5465 5.20676 20.5465 4.58138ZM15.5277 9.54022C15.7736 9.22392 16.2301 9.16618 16.5473 9.41126C16.8358 9.63406 16.9099 10.0304 16.7363 10.3383L16.6767 10.4277L13.8384 14.0796C13.6139 14.3685 13.2139 14.4415 12.9047 14.2658L12.815 14.2056L10.0835 12.0668L7.63115 15.2448C7.40864 15.5331 7.01131 15.6083 6.7019 15.4363L6.61198 15.3772C6.32279 15.1554 6.24735 14.7593 6.41992 14.4508L6.47916 14.3612L9.37954 10.6032C9.60364 10.3129 10.0046 10.239 10.3145 10.415L10.4045 10.4753L13.1368 12.6155L15.5277 9.54022ZM15.2236 3.53799C15.2236 3.13786 14.8982 2.81348 14.4968 2.81348H7.45429L7.22732 2.81726C4.07521 2.92283 2 5.23062 2 8.50732V16.315L2.00348 16.5481C2.10063 19.7878 4.2269 22 7.45429 22H15.7918L16.0188 21.9962C19.1721 21.891 21.2461 19.5901 21.2461 16.315V9.51534L21.2394 9.41702C21.1913 9.06339 20.8872 8.79083 20.5193 8.79083C20.1179 8.79083 19.7926 9.1152 19.7926 9.51534V16.315L19.7886 16.5399C19.7007 18.9868 18.1725 20.551 15.7918 20.551H7.45429L7.2384 20.5467C4.89102 20.4534 3.45352 18.8291 3.45352 16.315V8.50732L3.45752 8.28224C3.54548 5.83278 5.07567 4.2625 7.45429 4.2625H14.4968L14.5954 4.25589C14.9502 4.20791 15.2236 3.90478 15.2236 3.53799Z"/>
	</symbol>
	<symbol id="Filter">
		<path fill-rule="evenodd" clip-rule="evenodd" d="M5.94945 2.5C3.76837 2.5 2 4.26322 2 6.43714C2 8.61016 3.76859 10.3732 5.94945 10.3732C8.13031 10.3732 9.89889 8.61016 9.89889 6.43714C9.89889 4.26322 8.13052 2.5 5.94945 2.5ZM5.94945 4.00741C7.295 4.00741 8.38634 5.09557 8.38634 6.43714C8.38634 7.77772 7.29487 8.86575 5.94945 8.86575C4.60403 8.86575 3.51255 7.77772 3.51255 6.43714C3.51255 5.09557 4.6039 4.00741 5.94945 4.00741ZM21.9997 6.43714C21.9997 6.02088 21.6611 5.68343 21.2434 5.68343H13.5652L13.4626 5.69031C13.0935 5.74022 12.8089 6.05557 12.8089 6.43714C12.8089 6.8534 13.1475 7.19085 13.5652 7.19085H21.2434L21.346 7.18397C21.7151 7.13406 21.9997 6.81871 21.9997 6.43714ZM14.1011 17.564C14.1011 15.3902 15.8693 13.628 18.0506 13.628C20.2318 13.628 22 15.3902 22 17.564C22 19.7378 20.2318 21.5 18.0506 21.5C15.8693 21.5 14.1011 19.7378 14.1011 17.564ZM20.4874 17.564C20.4874 16.2227 19.3964 15.1354 18.0506 15.1354C16.7047 15.1354 15.6137 16.2227 15.6137 17.564C15.6137 18.9052 16.7047 19.9926 18.0506 19.9926C19.3964 19.9926 20.4874 18.9052 20.4874 17.564ZM11.1912 17.564C11.1912 17.1477 10.8526 16.8103 10.4349 16.8103H2.75673L2.6541 16.8171C2.28496 16.8671 2.00045 17.1824 2.00045 17.564C2.00045 17.9802 2.33904 18.3177 2.75673 18.3177H10.4349L10.5375 18.3108C10.9067 18.2609 11.1912 17.9455 11.1912 17.564Z" />
	</symbol>
	<symbol id="Setting">
		<path fill-rule="evenodd" clip-rule="evenodd" d="M12.6161 2H11.3811C10.6855 2 10.0186 2.27155 9.52796 2.75457C9.09307 3.1827 8.82704 3.74716 8.77575 4.34781L8.76724 4.54181C8.75775 5.17352 8.24742 5.66634 7.62101 5.66628C7.47895 5.6648 7.33141 5.63238 7.19559 5.5713L7.06235 5.50171C5.83155 4.81017 4.23128 5.23376 3.50918 6.46166L2.85989 7.50695C2.16949 8.68048 2.51001 10.1548 3.62449 10.9141L3.77948 11.0115C4.16149 11.2284 4.37987 11.599 4.37987 12C4.37987 12.3688 4.19491 12.7137 3.88645 12.9228L3.78115 12.9875C2.62651 13.6412 2.17157 15.0841 2.75197 16.2844L2.83679 16.4442L3.47412 17.5224C3.80539 18.1083 4.37306 18.5497 5.04445 18.7366C5.63953 18.9023 6.2746 18.8565 6.83762 18.6084L7.01565 18.5213C7.31529 18.3516 7.62484 18.3109 7.91538 18.3871C8.20591 18.4633 8.45336 18.65 8.6027 18.9057C8.68504 19.0418 8.73337 19.1822 8.75063 19.3277L8.75912 19.4753C8.75765 20.8493 9.93219 22 11.3811 22H12.6164C13.9845 22 15.12 20.9703 15.231 19.6414L15.2391 19.4698C15.2383 19.1379 15.3582 18.8524 15.5727 18.6422C15.7872 18.432 16.0786 18.3146 16.382 18.316C16.5214 18.3199 16.6746 18.3541 16.8166 18.4163L16.9527 18.485C18.1011 19.1344 19.6058 18.8008 20.3808 17.7089L20.4803 17.557L21.1399 16.4804C21.495 15.8833 21.5912 15.1817 21.4119 14.523C21.253 13.9391 20.8887 13.4297 20.3843 13.0841L20.2174 12.9793C19.9272 12.8149 19.736 12.5708 19.658 12.2844C19.58 11.998 19.6218 11.6929 19.7742 11.4368C19.8585 11.2926 19.9706 11.1726 20.1051 11.0807L20.3624 10.9223C21.4043 10.2293 21.7945 8.86519 21.2461 7.71842L21.1892 7.60674C21.1769 7.57762 21.1627 7.54922 21.1465 7.52174L20.5333 6.47928C19.8511 5.31918 18.3759 4.86897 17.146 5.4355L16.9821 5.51839C16.6882 5.68688 16.3779 5.72947 16.0857 5.65514C15.7935 5.58081 15.5435 5.39567 15.3908 5.14055C15.3124 5.01116 15.2641 4.87079 15.2468 4.72535L15.2383 4.57766C15.2599 3.94968 14.9925 3.27681 14.4983 2.77871C14.0041 2.28061 13.3251 1.99971 12.6161 2ZM11.3811 3.44774H12.6164C12.9264 3.44761 13.2229 3.57029 13.4387 3.78783C13.6546 4.00537 13.7713 4.29923 13.7624 4.60249L13.7756 4.85454C13.8203 5.23984 13.9357 5.57504 14.1181 5.87616C14.4673 6.45965 15.0423 6.88546 15.7143 7.05641C16.3863 7.22736 17.1001 7.12941 17.6983 6.78415L17.8015 6.73265L17.9125 6.6891C18.4009 6.52853 18.9764 6.73175 19.253 7.20208L19.8378 8.19726L19.8505 8.22529L19.9212 8.35884C20.1578 8.85504 19.9601 9.4827 19.448 9.77613L19.2873 9.87532C18.9464 10.1073 18.6849 10.3872 18.4946 10.7126C18.1471 11.2971 18.0509 11.9987 18.2302 12.6574C18.3932 13.2563 18.7716 13.7748 19.2922 14.1195L19.5645 14.2882C19.7566 14.4207 19.915 14.6422 19.9841 14.896C20.0621 15.1824 20.0203 15.4875 19.868 15.7436L19.2236 16.7957L19.1511 16.9067C18.8529 17.3258 18.2647 17.4814 17.7687 17.2682L17.4528 17.11C17.1004 16.9547 16.7556 16.8778 16.4053 16.8686C15.6914 16.865 15.0212 17.1351 14.5279 17.6185C14.0345 18.1019 13.7588 18.7585 13.7621 19.4421L13.7565 19.5511C13.7099 20.1023 13.2137 20.5523 12.6164 20.5523H11.3811C10.7905 20.5523 10.3043 20.1145 10.2421 19.552L10.2219 19.1985C10.1772 18.8132 10.0618 18.478 9.87937 18.1768C9.54028 17.5959 8.96861 17.1645 8.29737 16.9886C7.62614 16.8126 6.91096 16.9066 6.3108 17.2497L6.20208 17.3018C5.98569 17.3964 5.70831 17.4164 5.44842 17.344C5.1552 17.2624 4.90728 17.0696 4.75952 16.8084L4.13027 15.7449L4.07398 15.6383C3.83562 15.144 4.03354 14.5163 4.54639 14.2256L4.70219 14.1296C5.43413 13.634 5.85754 12.8446 5.85754 12C5.85754 11.1429 5.42197 10.3467 4.70395 9.871L4.44324 9.70925C3.98256 9.39466 3.83377 8.75044 4.13128 8.24455L4.78057 7.19925C5.1049 6.64815 5.8038 6.46315 6.3519 6.77085L6.54427 6.87026C6.90355 7.03293 7.25588 7.11034 7.61326 7.11398C8.99969 7.11416 10.1334 6.07087 10.2368 4.7415L10.2503 4.43661C10.2706 4.20741 10.3863 3.96196 10.5753 3.77582C10.7887 3.56581 11.0786 3.44774 11.3811 3.44774ZM12.0032 8.73182C10.161 8.73182 8.66748 10.195 8.66748 12C8.66748 13.805 10.161 15.2682 12.0032 15.2682C13.8455 15.2682 15.339 13.805 15.339 12C15.339 10.195 13.8455 8.73182 12.0032 8.73182ZM12.0032 10.1796C13.0294 10.1796 13.8613 10.9946 13.8613 12C13.8613 13.0054 13.0294 13.8204 12.0032 13.8204C10.977 13.8204 10.1452 13.0054 10.1452 12C10.1452 10.9946 10.977 10.1796 12.0032 10.1796Z" />
	</symbol>
	<symbol id="Base" style="">
		<g><path style="opacity:0.984" d="M 19.5,5.5 C 27.6682,4.95 35.6682,5.78334 43.5,8C 46.1024,8.88343 48.2691,10.3834 50,12.5C 51.28,21.7331 51.9467,31.0664 52,40.5C 64.8736,33.2459 77.0403,34.2459 88.5,43.5C 89.666,56.1535 89.8326,68.8202 89,81.5C 83.5272,87.3846 76.6939,90.0513 68.5,89.5C 61.1753,90.0459 54.6753,88.0459 49,83.5C 42.7587,87.9786 35.7587,89.9786 28,89.5C 19.3039,90.3341 11.9706,87.6675 6,81.5C 5.33333,58.8333 5.33333,36.1667 6,13.5C 9.75341,9.43095 14.2534,6.76428 19.5,5.5 Z M 23.5,9.5 C 29.6393,9.35666 35.6393,10.19 41.5,12C 48.1667,15.3333 48.1667,18.6667 41.5,22C 30.9231,25.8252 20.7565,24.9919 11,19.5C 10.6258,18.5838 10.1258,17.7504 9.5,17C 10.1258,16.2496 10.6258,15.4162 11,14.5C 14.9985,12.1182 19.1652,10.4515 23.5,9.5 Z M 9.5,24.5 C 18.4307,28.279 27.764,29.4456 37.5,28C 40.6237,27.5209 43.4571,26.3543 46,24.5C 46.6667,27.8333 46.6667,31.1667 46,34.5C 37.0313,39.5767 27.5313,40.7433 17.5,38C 10.1307,36.3892 7.46408,31.8892 9.5,24.5 Z M 45.5,40.5 C 46.4794,43.6248 46.8128,46.9581 46.5,50.5C 41.9053,56.0423 35.9053,58.709 28.5,58.5C 14.878,59.049 8.71135,52.7156 10,39.5C 21.6807,45.5468 33.514,45.8802 45.5,40.5 Z M 61.5,40.5 C 68.0306,39.9885 74.3639,40.8218 80.5,43C 86.4045,46.7268 86.7378,50.7268 81.5,55C 73.3316,59.1967 64.9982,59.53 56.5,56C 53.113,53.9984 51.613,51.165 52,47.5C 54.4803,44.1797 57.647,41.8463 61.5,40.5 Z M 45.5,58.5 C 46.4682,60.6074 46.8016,62.9407 46.5,65.5C 42.0315,71.3972 36.0315,74.0639 28.5,73.5C 22.3834,73.7379 16.8834,72.0712 12,68.5C 9.75515,65.1191 9.08849,61.4525 10,57.5C 21.6274,64.9651 33.4607,65.2984 45.5,58.5 Z M 52.5,58.5 C 63.0937,65.1444 73.7604,65.1444 84.5,58.5C 86.2489,66.6159 82.9155,71.4492 74.5,73C 67.7854,74.2478 61.4521,73.2478 55.5,70C 53.2663,68.3621 51.933,66.1955 51.5,63.5C 51.2155,61.5853 51.5489,59.9187 52.5,58.5 Z M 45.5,73.5 C 46.4614,75.2646 46.7947,77.2646 46.5,79.5C 36.8681,85.8113 26.5348,86.9779 15.5,83C 10.3835,81.2683 8.55012,77.7683 10,72.5C 21.6581,80.0508 33.4914,80.3842 45.5,73.5 Z M 84.5,72.5 C 86.479,78.6844 84.1457,82.5177 77.5,84C 70.3971,86.0713 63.3971,85.738 56.5,83C 51.7917,81.2294 50.4583,78.0628 52.5,73.5C 61.3734,79.0203 70.7067,79.8536 80.5,76C 82.3237,75.34 83.657,74.1733 84.5,72.5 Z"/></g>
		<g><path style="opacity:0.481" d="M 45.5,40.5 C 45.56,39.9569 45.8933,39.6236 46.5,39.5C 47.8077,43.3147 47.8077,46.9813 46.5,50.5C 46.8128,46.9581 46.4794,43.6248 45.5,40.5 Z"/></g>
		<g><path style="opacity:0.474" d="M 45.5,58.5 C 45.56,57.9569 45.8933,57.6236 46.5,57.5C 47.8003,60.3092 47.8003,62.9759 46.5,65.5C 46.8016,62.9407 46.4682,60.6074 45.5,58.5 Z"/></g>
		<g><path style="opacity:0.502" d="M 52.5,58.5 C 51.5489,59.9187 51.2155,61.5853 51.5,63.5C 50.2072,61.6365 50.2072,59.6365 51.5,57.5C 52.1067,57.6236 52.44,57.9569 52.5,58.5 Z"/></g>
		<g><path style="opacity:0.471" d="M 45.5,73.5 C 45.56,72.9569 45.8933,72.6236 46.5,72.5C 47.7969,74.9732 47.7969,77.3066 46.5,79.5C 46.7947,77.2646 46.4614,75.2646 45.5,73.5 Z"/></g>
	</symbol>
	<symbol id="Client" style="fill-rule:evenodd; clip-rule:evenodd">
		<g><path style="opacity:0.978" d="M 41.5,-0.5 C 44.1667,-0.5 46.8333,-0.5 49.5,-0.5C 57.4062,2.98261 60.2395,8.98261 58,17.5C 53.5409,25.4466 47.0409,27.6132 38.5,24C 32.0795,18.4818 30.9128,11.9818 35,4.5C 36.9651,2.44965 39.1318,0.782988 41.5,-0.5 Z M 44.5,3.5 C 52.7129,4.92837 55.5462,9.59503 53,17.5C 45.5417,23.5315 40.0417,22.0315 36.5,13C 37.6062,8.40302 40.2729,5.23636 44.5,3.5 Z"/></g>
		<g><path style="opacity:0.985" d="M 32.5,34.5 C 41.1731,34.3336 49.8397,34.5002 58.5,35C 69.5276,38.3749 74.6943,45.8749 74,57.5C 55.2313,58.8251 36.3979,58.8251 17.5,57.5C 16.356,45.9535 21.356,38.2868 32.5,34.5 Z M 31.5,39.5 C 40.8393,39.3335 50.1726,39.5002 59.5,40C 66.1788,42.5239 69.5122,47.3572 69.5,54.5C 53.5,54.5 37.5,54.5 21.5,54.5C 22.1023,47.6159 25.4357,42.6159 31.5,39.5 Z"/></g>
		<g><path style="opacity:0.979" d="M -0.5,64.5 C -0.5,62.1667 -0.5,59.8333 -0.5,57.5C 0.970083,55.8487 2.30342,54.0153 3.5,52C 5.21199,50.2491 7.21199,49.5825 9.5,50C 10.5171,51.0495 10.6838,52.2161 10,53.5C 4.17743,56.2949 2.8441,60.2949 6,65.5C 15.639,72.6195 26.4723,75.7862 38.5,75C 34.9713,72.6692 32.9713,69.5025 32.5,65.5C 33.8734,65.3433 35.2068,65.51 36.5,66C 40.1705,70.5226 44.5038,74.0226 49.5,76.5C 61.6707,76.1255 73.004,72.9589 83.5,67C 85.5836,65.4993 86.9169,63.4993 87.5,61C 85.9201,57.4193 83.5867,54.4193 80.5,52C 81.0593,49.8125 82.3927,49.1458 84.5,50C 93.8333,57.3333 93.8333,64.6667 84.5,72C 72.6074,78.1395 59.9407,81.1395 46.5,81C 43.1667,84.3333 39.8333,87.6667 36.5,91C 35.2068,91.49 33.8734,91.6567 32.5,91.5C 33.3186,87.1474 35.652,83.6474 39.5,81C 27.8501,80.272 16.8501,77.272 6.5,72C 3.93337,69.6041 1.60004,67.1041 -0.5,64.5 Z"/></g>
	</symbol>
	<symbol id="Sales" style="fill-rule:evenodd; clip-rule:evenodd">
		<g><path style="opacity:0.972" d="M 46.5,4.5 C 74.8333,5.5 89.5,20.1667 90.5,48.5C 84.8742,47.1916 79.5409,45.0249 74.5,42C 73.6198,40.6439 73.2865,39.1439 73.5,37.5C 78.0283,38.1779 82.1949,39.8446 86,42.5C 82.1145,21.2919 69.2811,9.79186 47.5,8C 46.6634,6.98873 46.33,5.82207 46.5,4.5 Z"/></g>
		<g><path style="opacity:0.974" d="M 25.5,9.5 C 39.7059,10.2651 45.5392,17.5985 43,31.5C 38.1776,41.1537 30.6776,43.987 20.5,40C 12.0781,33.8434 10.2448,26.0101 15,16.5C 17.7008,12.7483 21.2008,10.415 25.5,9.5 Z M 24.5,14.5 C 36.6592,14.1673 41.1592,19.834 38,31.5C 33.5258,37.6608 28.0258,38.8275 21.5,35C 14.4152,26.9318 15.4152,20.0984 24.5,14.5 Z"/></g>
		<g><path style="opacity:0.973" d="M 6.5,44.5 C 12.7897,45.5569 18.623,47.8903 24,51.5C 24.8542,53.6073 24.1875,54.9407 22,55.5C 18.5272,54.097 15.1939,52.4303 12,50.5C 13.6831,65.8702 21.8498,76.3702 36.5,82C 41.1176,83.1584 45.7842,83.9917 50.5,84.5C 50.5,85.8333 50.5,87.1667 50.5,88.5C 22.8333,86.8333 8.16667,72.1667 6.5,44.5 Z"/></g>
		<g><path style="opacity:0.973" d="M 67.5,50.5 C 82.7297,52.5673 87.8964,60.9007 83,75.5C 74.9017,83.9941 66.235,84.6608 57,77.5C 49.9638,64.2555 53.4638,55.2555 67.5,50.5 Z M 65.5,55.5 C 79.1601,55.6527 83.3267,61.986 78,74.5C 70.5572,80.4779 64.2239,79.4779 59,71.5C 57,68.1667 57,64.8333 59,61.5C 61.0627,59.2659 63.2294,57.2659 65.5,55.5 Z"/></g>
	</symbol>
	<symbol id="Love" style="fill-rule:evenodd; clip-rule:evenodd">
		<g><path style="opacity:0.969" d="M 44.5,8.5 C 60.0243,7.89736 66.5243,15.2307 64,30.5C 58.2605,40.6078 50.0938,43.1078 39.5,38C 32.1888,31.6896 30.6888,24.1896 35,15.5C 37.529,12.1151 40.6956,9.78177 44.5,8.5 Z M 44.5,13.5 C 58.0264,12.9134 62.5264,18.9134 58,31.5C 52.5014,37.0284 46.668,37.5284 40.5,33C 35.0172,25.2462 36.3505,18.7462 44.5,13.5 Z"/></g>
		<g><path style="opacity:0.975" d="M 39.5,49.5 C 41.5273,49.3379 43.5273,49.5045 45.5,50C 46.5171,51.0495 46.6838,52.2161 46,53.5C 37.0882,54.1375 28.9216,56.9708 21.5,62C 14.4686,68.2307 10.802,76.064 10.5,85.5C 7.26573,85.7634 5.9324,84.2634 6.5,81C 7.89435,69.5458 13.561,60.8791 23.5,55C 28.7399,52.5336 34.0732,50.7003 39.5,49.5 Z"/></g>
		<g><path style="opacity:0.973" d="M 61.5,55.5 C 64.8649,55.255 68.0316,55.9217 71,57.5C 77.3058,54.16 82.3058,55.4933 86,61.5C 87.6387,73.2071 83.1387,81.7071 72.5,87C 71.1667,87.6667 69.8333,87.6667 68.5,87C 58.6306,81.7591 54.1306,73.5925 55,62.5C 56.6941,59.6424 58.8607,57.309 61.5,55.5 Z M 61.5,60.5 C 64.9717,60.1262 67.9717,61.1262 70.5,63.5C 80.331,58.4824 83.831,61.4824 81,72.5C 78.5374,75.9646 75.7041,79.1312 72.5,82C 67.3632,81.2307 63.5299,78.3973 61,73.5C 57.6682,68.9243 57.8348,64.591 61.5,60.5 Z"/></g>
	</symbol>

</svg>